<svg width="10" height="10" viewBox="0 0 10 10" fill="none" xmlns="http://www.w3.org/2000/svg">
<path d="M2.26034 8.69053C1.83608 8.27634 1.50105 7.77982 1.27584 7.23149C1.05063 6.68315 0.940003 6.09459 0.950751 5.50196C0.939822 4.90577 1.05026 4.31358 1.27539 3.76136C1.50051 3.20914 1.83562 2.70841 2.26034 2.28959C2.66884 1.85618 3.16403 1.51354 3.71374 1.28396C4.26345 1.05438 4.85536 0.942999 5.45097 0.957054C6.65675 0.958314 7.81278 1.43756 8.66539 2.28962C9.51801 3.14168 9.99757 4.29696 9.99883 5.50196C10.0129 6.09719 9.90144 6.68871 9.67171 7.23807C9.44198 7.78742 9.09911 8.2823 8.66542 8.69053C8.24501 9.1132 7.74372 9.44691 7.19145 9.67176C6.63918 9.89662 6.04725 10.008 5.45097 9.99928C4.85796 10.01 4.26902 9.89946 3.72033 9.6744C3.17164 9.44934 2.6748 9.11452 2.26034 8.69053Z" fill="#BFBFBF"/>
</svg>
